<svg xmlns="http://www.w3.org/2000/svg" width="120" height="120" viewBox="0 0 120 120">
  <style>
    @keyframes pulse {
      0% { transform: scale(1); opacity: 0.7; }
      50% { transform: scale(1.05); opacity: 1; }
      100% { transform: scale(1); opacity: 0.7; }
    }
    @keyframes wave {
      0% { opacity: 0; transform: scale(0.8); }
      50% { opacity: 1; }
      100% { opacity: 0; transform: scale(1.2); }
    }
    .ear-pulse {
      animation: pulse 2s ease-in-out infinite;
    }
    .sound-wave-1 {
      animation: wave 2s ease-out infinite;
    }
    .sound-wave-2 {
      animation: wave 2s ease-out infinite 0.4s;
    }
    .sound-wave-3 {
      animation: wave 2s ease-out infinite 0.8s;
    }
  </style>
  
  <!-- Background -->
  <circle cx="60" cy="60" r="60" fill="#1cc88a" opacity="0.2"/>
  <circle cx="60" cy="60" r="50" fill="#1cc88a" opacity="0.3"/>
  
  <!-- Ear shape -->
  <path d="M50,40 C30,40 30,80 50,80 L55,80 C60,80 65,75 65,70 L65,60 C65,58 68,55 70,55 C72,55 75,58 75,60 L75,70 C75,80 65,90 55,90 L50,90 C20,90 20,30 50,30 C65,30 80,45 80,60 L80,65" 
    fill="white" stroke="#13855c" stroke-width="2" class="ear-pulse"/>
  
  <!-- Sound waves -->
  <circle cx="85" cy="65" r="10" fill="none" stroke="#13855c" stroke-width="1" opacity="0.7" class="sound-wave-1"/>
  <circle cx="85" cy="65" r="15" fill="none" stroke="#13855c" stroke-width="1" opacity="0.7" class="sound-wave-2"/>
  <circle cx="85" cy="65" r="20" fill="none" stroke="#13855c" stroke-width="1" opacity="0.7" class="sound-wave-3"/>
  
  <!-- Musical note -->
  <path d="M85,65 L85,45 L92,43 L92,63 C92,66 89,68 86,68 C83,68 80,66 80,63 C80,60 83,58 85,59 Z" 
    fill="#13855c" stroke="#13855c" stroke-width="1"/>
</svg> 