 <svg xmlns="http://www.w3.org/2000/svg" width="120" height="120" viewBox="0 0 120 120">
  <style>
    @keyframes bellRing {
      0%, 100% { transform: rotate(0deg); }
      10% { transform: rotate(5deg); }
      20% { transform: rotate(-5deg); }
      30% { transform: rotate(3deg); }
      40% { transform: rotate(-3deg); }
      50% { transform: rotate(0deg); }
    }
    @keyframes notificationGlow {
      0% { filter: drop-shadow(0 0 2px rgba(108, 117, 125, 0.4)); }
      50% { filter: drop-shadow(0 0 5px rgba(108, 117, 125, 0.7)); }
      100% { filter: drop-shadow(0 0 2px rgba(108, 117, 125, 0.4)); }
    }
    @keyframes dotPulse {
      0% { transform: scale(1); }
      50% { transform: scale(1.2); }
      100% { transform: scale(1); }
    }
    .bell {
      animation: bellRing 3s ease-in-out infinite;
      transform-origin: 60px 40px;
    }
    .bell-base {
      animation: notificationGlow 4s ease-in-out infinite;
    }
    .notification-dot {
      animation: dotPulse 1.5s ease-in-out infinite;
      transform-origin: center;
    }
  </style>
  
  <!-- Background -->
  <circle cx="60" cy="60" r="60" fill="#6c757d" opacity="0.15"/>
  <circle cx="60" cy="60" r="50" fill="#6c757d" opacity="0.2"/>
  
  <!-- Bell Group -->
  <g class="bell">
    <!-- Bell Body -->
    <path class="bell-base" d="M60,40 C46,40 45,55 45,65 L45,75 C45,75 43,79 40,80 L40,83 L80,83 L80,80 C77,79 75,75 75,75 L75,65 C75,55 74,40 60,40 Z" fill="#f8f9fa" stroke="#6c757d" stroke-width="2" stroke-linecap="round"/>
    
    <!-- Bell Handle -->
    <path d="M60,40 L60,35 C63,35 66,37 66,40 C66,40 63,42 60,40 Z" fill="#f8f9fa" stroke="#6c757d" stroke-width="2" stroke-linecap="round"/>
    
    <!-- Bell Bottom -->
    <path d="M52,83 L68,83 C68,88 65,90 60,90 C55,90 52,88 52,83 Z" fill="#f8f9fa" stroke="#6c757d" stroke-width="2" stroke-linecap="round"/>
  </g>
  
  <!-- Notification Dot -->
  <circle class="notification-dot" cx="75" cy="50" r="8" fill="#dc3545"/>
  <circle cx="75" cy="50" r="5" fill="#ff6b6b"/>
  
  <!-- Sound Waves -->
  <path d="M82,50 C85,55 87,60 87,65" fill="none" stroke="#6c757d" stroke-width="2" stroke-linecap="round" opacity="0.5"/>
  <path d="M86,45 C90,53 93,60 93,70" fill="none" stroke="#6c757d" stroke-width="2" stroke-linecap="round" opacity="0.3"/>
</svg>