<svg xmlns="http://www.w3.org/2000/svg" width="120" height="120" viewBox="0 0 120 120">
  <style>
    @keyframes float {
      0% { transform: translateY(0px); }
      50% { transform: translateY(-5px); }
      100% { transform: translateY(0px); }
    }
    .float {
      animation: float 3s ease-in-out infinite;
    }
    .float2 {
      animation: float 3s ease-in-out infinite;
      animation-delay: 0.5s;
    }
    .float3 {
      animation: float 3s ease-in-out infinite;
      animation-delay: 1s;
    }
  </style>
  
  <!-- Background -->
  <circle cx="60" cy="60" r="60" fill="#1CC88A" opacity="0.2"/>
  <circle cx="60" cy="60" r="50" fill="#1CC88A" opacity="0.3"/>
  
  <!-- Book -->
  <path d="M30,40 L30,90 L90,90 L90,40 L30,40 Z" fill="#ffffff" stroke="#13855C" stroke-width="2"/>
  <path d="M30,40 L30,90 L45,90 L45,40 L30,40 Z" fill="#1CC88A"/>
  <path d="M60,40 L60,90" stroke="#13855C" stroke-width="1" stroke-dasharray="2,2"/>
  
  <!-- Text lines -->
  <rect x="50" y="50" width="30" height="3" rx="1.5" fill="#13855C" class="float"/>
  <rect x="50" y="60" width="20" height="3" rx="1.5" fill="#13855C" class="float2"/>
  <rect x="50" y="70" width="25" height="3" rx="1.5" fill="#13855C" class="float3"/>
  <rect x="50" y="80" width="15" height="3" rx="1.5" fill="#13855C" class="float"/>
  
  <!-- Vocabulary cards -->
  <rect x="75" y="30" width="20" height="15" rx="2" fill="#ffffff" stroke="#13855C" stroke-width="1" transform="rotate(-10,85,37.5)" class="float"/>
  <rect x="25" y="25" width="20" height="15" rx="2" fill="#ffffff" stroke="#13855C" stroke-width="1" transform="rotate(10,35,32.5)" class="float3"/>
</svg> 