<svg xmlns="http://www.w3.org/2000/svg" width="120" height="120" viewBox="0 0 120 120">
  <style>
    @keyframes glow {
      0% { filter: drop-shadow(0 0 2px rgba(246, 194, 62, 0.4)); }
      50% { filter: drop-shadow(0 0 5px rgba(246, 194, 62, 0.7)); }
      100% { filter: drop-shadow(0 0 2px rgba(246, 194, 62, 0.4)); }
    }
    @keyframes pencilMove {
      0% { transform: translate(0, 0) rotate(0deg); }
      25% { transform: translate(2px, 2px) rotate(0.5deg); }
      50% { transform: translate(0, 3px) rotate(0deg); }
      75% { transform: translate(-2px, 1px) rotate(-0.5deg); }
      100% { transform: translate(0, 0) rotate(0deg); }
    }
    .pencil {
      animation: pencilMove 4s ease-in-out infinite;
    }
    .paper-glow {
      animation: glow 2s ease-in-out infinite;
    }
  </style>
  
  <!-- Background -->
  <circle cx="60" cy="60" r="60" fill="#f6c23e" opacity="0.2"/>
  <circle cx="60" cy="60" r="50" fill="#f6c23e" opacity="0.3"/>

  <!-- Paper -->
  <rect x="30" y="30" width="50" height="65" rx="2" ry="2" fill="white" stroke="#e0ac0e" stroke-width="1" class="paper-glow"/>
  
  <!-- Lines on paper -->
  <line x1="40" y1="45" x2="70" y2="45" stroke="#e0ac0e" stroke-width="0.5" opacity="0.7"/>
  <line x1="40" y1="55" x2="70" y2="55" stroke="#e0ac0e" stroke-width="0.5" opacity="0.7"/>
  <line x1="40" y1="65" x2="70" y2="65" stroke="#e0ac0e" stroke-width="0.5" opacity="0.7"/>
  <line x1="40" y1="75" x2="70" y2="75" stroke="#e0ac0e" stroke-width="0.5" opacity="0.7"/>
  <line x1="40" y1="85" x2="70" y2="85" stroke="#e0ac0e" stroke-width="0.5" opacity="0.7"/>
  
  <!-- Pencil -->
  <g class="pencil">
    <!-- Pencil body -->
    <polygon points="65,35 90,25 85,45 60,55" fill="#e0ac0e" stroke="#b88b10" stroke-width="1"/>
    
    <!-- Pencil tip -->
    <polygon points="60,55 55,60 57,50" fill="#4e4e4e" stroke="#333333" stroke-width="0.5"/>
    
    <!-- Pencil eraser -->
    <rect x="88" y="26" width="5" height="3" rx="1" ry="1" fill="#ff7c7c" stroke="#e06767" stroke-width="0.5"/>
    
    <!-- Pencil detail -->
    <line x1="75" y1="30" x2="70" y2="50" stroke="#b88b10" stroke-width="0.7"/>
  </g>
  
  <!-- Writing on paper (squiggly lines) -->
  <path d="M40,45 C42,44 44,46 46,45 C48,44 50,46 52,45" stroke="#333333" stroke-width="1" fill="none"/>
  <path d="M40,55 C43,54 46,56 49,55 C52,54 55,56 58,55" stroke="#333333" stroke-width="1" fill="none"/>
  <path d="M40,65 C44,64 48,66 52,65 C56,64 60,66 64,65" stroke="#333333" stroke-width="1" fill="none"/>
</svg> 